<svg xmlns="http://www.w3.org/2000/svg" viewBox="0 0 80 112" role="img">
  <defs>
    <linearGradient id="tileBase" x1="0" y1="0" x2="0" y2="1">
      <stop offset="0" stop-color="#ffffff"/>
      <stop offset="0.72" stop-color="#fffaf0"/>
      <stop offset="1" stop-color="#dfd2b8"/>
    </linearGradient>
    <filter id="tileShadow" x="-20%" y="-20%" width="140%" height="140%">
      <feDropShadow dx="0" dy="1.8" stdDeviation="1.1" flood-color="#0f172a" flood-opacity="0.20"/>
    </filter>
  </defs>
  <rect x="5" y="4" width="70" height="104" rx="10" fill="url(#tileBase)" stroke="#b7aa8d" stroke-width="3" filter="url(#tileShadow)"/>
  <rect x="11" y="10" width="58" height="88" rx="7" fill="#fffef9" stroke="#173b8f" stroke-opacity="0.34" stroke-width="2"/>
  <circle cx="29" cy="33" r="10.3" fill="#fffef9" stroke="#173b8f" stroke-width="2.8"/>
  <circle cx="29" cy="33" r="6.7" fill="none" stroke="#173b8f" stroke-width="3.2"/>
  <circle cx="29" cy="33" r="2.3449999999999998" fill="#173b8f"/>
  <circle cx="51" cy="33" r="10.3" fill="#fffef9" stroke="#173b8f" stroke-width="2.8"/>
  <circle cx="51" cy="33" r="6.7" fill="none" stroke="#173b8f" stroke-width="3.2"/>
  <circle cx="51" cy="33" r="2.3449999999999998" fill="#173b8f"/>
  <circle cx="29" cy="52" r="10.3" fill="#fffef9" stroke="#173b8f" stroke-width="2.8"/>
  <circle cx="29" cy="52" r="6.7" fill="none" stroke="#173b8f" stroke-width="3.2"/>
  <circle cx="29" cy="52" r="2.3449999999999998" fill="#173b8f"/>
  <circle cx="51" cy="52" r="10.3" fill="#fffef9" stroke="#b42318" stroke-width="2.8"/>
  <circle cx="51" cy="52" r="6.7" fill="none" stroke="#b42318" stroke-width="3.2"/>
  <circle cx="51" cy="52" r="2.3449999999999998" fill="#b42318"/>
  <circle cx="29" cy="71" r="10.3" fill="#fffef9" stroke="#b42318" stroke-width="2.8"/>
  <circle cx="29" cy="71" r="6.7" fill="none" stroke="#b42318" stroke-width="3.2"/>
  <circle cx="29" cy="71" r="2.3449999999999998" fill="#b42318"/>
  <circle cx="51" cy="71" r="10.3" fill="#fffef9" stroke="#b42318" stroke-width="2.8"/>
  <circle cx="51" cy="71" r="6.7" fill="none" stroke="#b42318" stroke-width="3.2"/>
  <circle cx="51" cy="71" r="2.3449999999999998" fill="#b42318"/>
  <text x="62" y="88" text-anchor="middle" dominant-baseline="middle" font-family="Arial, sans-serif" font-size="12" font-weight="900" fill="#173b8f">6</text>
  <rect x="17" y="96" width="46" height="5" rx="3" fill="#8b7355" opacity="0.22"/>
</svg>
