<svg xmlns="http://www.w3.org/2000/svg" viewBox="0 0 80 112" role="img">
  <defs>
    <linearGradient id="tileBase" x1="0" y1="0" x2="0" y2="1">
      <stop offset="0" stop-color="#ffffff"/>
      <stop offset="0.72" stop-color="#fffaf0"/>
      <stop offset="1" stop-color="#dfd2b8"/>
    </linearGradient>
    <filter id="tileShadow" x="-20%" y="-20%" width="140%" height="140%">
      <feDropShadow dx="0" dy="1.8" stdDeviation="1.1" flood-color="#0f172a" flood-opacity="0.20"/>
    </filter>
  </defs>
  <rect x="5" y="4" width="70" height="104" rx="10" fill="url(#tileBase)" stroke="#b7aa8d" stroke-width="3" filter="url(#tileShadow)"/>
  <rect x="11" y="10" width="58" height="88" rx="7" fill="#fffef9" stroke="#087443" stroke-opacity="0.34" stroke-width="2"/>
  <g>
    <rect x="21.28" y="21.4" width="9.44" height="19.2" rx="3.52" fill="#087443"/>
    <rect x="20.56" y="29.64" width="10.88" height="2.72" rx="1.36" fill="#fffef9" opacity="0.94"/>
    <circle cx="26" cy="25.82" r="1.76" fill="#fffef9" opacity="0.9"/>
    <circle cx="26" cy="36.18" r="1.76" fill="#fffef9" opacity="0.9"/>
  </g>
  <g>
    <rect x="35.28" y="21.4" width="9.44" height="19.2" rx="3.52" fill="#087443"/>
    <rect x="34.56" y="29.64" width="10.88" height="2.72" rx="1.36" fill="#fffef9" opacity="0.94"/>
    <circle cx="40" cy="25.82" r="1.76" fill="#fffef9" opacity="0.9"/>
    <circle cx="40" cy="36.18" r="1.76" fill="#fffef9" opacity="0.9"/>
  </g>
  <g>
    <rect x="49.28" y="21.4" width="9.44" height="19.2" rx="3.52" fill="#087443"/>
    <rect x="48.56" y="29.64" width="10.88" height="2.72" rx="1.36" fill="#fffef9" opacity="0.94"/>
    <circle cx="54" cy="25.82" r="1.76" fill="#fffef9" opacity="0.9"/>
    <circle cx="54" cy="36.18" r="1.76" fill="#fffef9" opacity="0.9"/>
  </g>
  <g>
    <rect x="26.04" y="40.92" width="9.91" height="20.16" rx="3.7" fill="#b42318"/>
    <rect x="25.29" y="49.57" width="11.42" height="2.86" rx="1.43" fill="#fffef9" opacity="0.94"/>
    <circle cx="31" cy="45.56" r="1.85" fill="#fffef9" opacity="0.9"/>
    <circle cx="31" cy="56.44" r="1.85" fill="#fffef9" opacity="0.9"/>
  </g>
  <g>
    <rect x="44.04" y="40.92" width="9.91" height="20.16" rx="3.7" fill="#b42318"/>
    <rect x="43.29" y="49.57" width="11.42" height="2.86" rx="1.43" fill="#fffef9" opacity="0.94"/>
    <circle cx="49" cy="45.56" r="1.85" fill="#fffef9" opacity="0.9"/>
    <circle cx="49" cy="56.44" r="1.85" fill="#fffef9" opacity="0.9"/>
  </g>
  <g>
    <rect x="21.28" y="63.4" width="9.44" height="19.2" rx="3.52" fill="#087443"/>
    <rect x="20.56" y="71.64" width="10.88" height="2.72" rx="1.36" fill="#fffef9" opacity="0.94"/>
    <circle cx="26" cy="67.82" r="1.76" fill="#fffef9" opacity="0.9"/>
    <circle cx="26" cy="78.18" r="1.76" fill="#fffef9" opacity="0.9"/>
  </g>
  <g>
    <rect x="35.28" y="63.4" width="9.44" height="19.2" rx="3.52" fill="#087443"/>
    <rect x="34.56" y="71.64" width="10.88" height="2.72" rx="1.36" fill="#fffef9" opacity="0.94"/>
    <circle cx="40" cy="67.82" r="1.76" fill="#fffef9" opacity="0.9"/>
    <circle cx="40" cy="78.18" r="1.76" fill="#fffef9" opacity="0.9"/>
  </g>
  <g>
    <rect x="49.28" y="63.4" width="9.44" height="19.2" rx="3.52" fill="#087443"/>
    <rect x="48.56" y="71.64" width="10.88" height="2.72" rx="1.36" fill="#fffef9" opacity="0.94"/>
    <circle cx="54" cy="67.82" r="1.76" fill="#fffef9" opacity="0.9"/>
    <circle cx="54" cy="78.18" r="1.76" fill="#fffef9" opacity="0.9"/>
  </g>
  <text x="62" y="88" text-anchor="middle" dominant-baseline="middle" font-family="Arial, sans-serif" font-size="12" font-weight="900" fill="#087443">8</text>
  <rect x="17" y="96" width="46" height="5" rx="3" fill="#8b7355" opacity="0.22"/>
</svg>
