<svg xmlns="http://www.w3.org/2000/svg" viewBox="0 0 80 112" role="img">
  <defs>
    <linearGradient id="tileBase" x1="0" y1="0" x2="0" y2="1">
      <stop offset="0" stop-color="#ffffff"/>
      <stop offset="0.72" stop-color="#fffaf0"/>
      <stop offset="1" stop-color="#dfd2b8"/>
    </linearGradient>
    <filter id="tileShadow" x="-20%" y="-20%" width="140%" height="140%">
      <feDropShadow dx="0" dy="1.8" stdDeviation="1.1" flood-color="#0f172a" flood-opacity="0.20"/>
    </filter>
  </defs>
  <rect x="5" y="4" width="70" height="104" rx="10" fill="url(#tileBase)" stroke="#b7aa8d" stroke-width="3" filter="url(#tileShadow)"/>
  <rect x="11" y="10" width="58" height="88" rx="7" fill="#fffef9" stroke="#087443" stroke-opacity="0.34" stroke-width="2"/>
  <g>
    <rect x="21.6" y="23" width="8.8" height="18" rx="3.4" fill="#087443"/>
    <rect x="20.4" y="30.4" width="11.2" height="3.2" rx="1.6" fill="#fffef9" opacity="0.92"/>
    <circle cx="26" cy="26" r="2.1" fill="#fffef9" opacity="0.86"/>
    <circle cx="26" cy="38" r="2.1" fill="#fffef9" opacity="0.86"/>
  </g>
  <g>
    <rect x="35.6" y="23" width="8.8" height="18" rx="3.4" fill="#b42318"/>
    <rect x="34.4" y="30.4" width="11.2" height="3.2" rx="1.6" fill="#fffef9" opacity="0.92"/>
    <circle cx="40" cy="26" r="2.1" fill="#fffef9" opacity="0.86"/>
    <circle cx="40" cy="38" r="2.1" fill="#fffef9" opacity="0.86"/>
  </g>
  <g>
    <rect x="49.6" y="23" width="8.8" height="18" rx="3.4" fill="#087443"/>
    <rect x="48.4" y="30.4" width="11.2" height="3.2" rx="1.6" fill="#fffef9" opacity="0.92"/>
    <circle cx="54" cy="26" r="2.1" fill="#fffef9" opacity="0.86"/>
    <circle cx="54" cy="38" r="2.1" fill="#fffef9" opacity="0.86"/>
  </g>
  <g>
    <rect x="21.6" y="43" width="8.8" height="18" rx="3.4" fill="#087443"/>
    <rect x="20.4" y="50.4" width="11.2" height="3.2" rx="1.6" fill="#fffef9" opacity="0.92"/>
    <circle cx="26" cy="46" r="2.1" fill="#fffef9" opacity="0.86"/>
    <circle cx="26" cy="58" r="2.1" fill="#fffef9" opacity="0.86"/>
  </g>
  <g>
    <rect x="35.6" y="43" width="8.8" height="18" rx="3.4" fill="#b42318"/>
    <rect x="34.4" y="50.4" width="11.2" height="3.2" rx="1.6" fill="#fffef9" opacity="0.92"/>
    <circle cx="40" cy="46" r="2.1" fill="#fffef9" opacity="0.86"/>
    <circle cx="40" cy="58" r="2.1" fill="#fffef9" opacity="0.86"/>
  </g>
  <g>
    <rect x="49.6" y="43" width="8.8" height="18" rx="3.4" fill="#087443"/>
    <rect x="48.4" y="50.4" width="11.2" height="3.2" rx="1.6" fill="#fffef9" opacity="0.92"/>
    <circle cx="54" cy="46" r="2.1" fill="#fffef9" opacity="0.86"/>
    <circle cx="54" cy="58" r="2.1" fill="#fffef9" opacity="0.86"/>
  </g>
  <g>
    <rect x="21.6" y="63" width="8.8" height="18" rx="3.4" fill="#087443"/>
    <rect x="20.4" y="70.4" width="11.2" height="3.2" rx="1.6" fill="#fffef9" opacity="0.92"/>
    <circle cx="26" cy="66" r="2.1" fill="#fffef9" opacity="0.86"/>
    <circle cx="26" cy="78" r="2.1" fill="#fffef9" opacity="0.86"/>
  </g>
  <g>
    <rect x="35.6" y="63" width="8.8" height="18" rx="3.4" fill="#b42318"/>
    <rect x="34.4" y="70.4" width="11.2" height="3.2" rx="1.6" fill="#fffef9" opacity="0.92"/>
    <circle cx="40" cy="66" r="2.1" fill="#fffef9" opacity="0.86"/>
    <circle cx="40" cy="78" r="2.1" fill="#fffef9" opacity="0.86"/>
  </g>
  <g>
    <rect x="49.6" y="63" width="8.8" height="18" rx="3.4" fill="#087443"/>
    <rect x="48.4" y="70.4" width="11.2" height="3.2" rx="1.6" fill="#fffef9" opacity="0.92"/>
    <circle cx="54" cy="66" r="2.1" fill="#fffef9" opacity="0.86"/>
    <circle cx="54" cy="78" r="2.1" fill="#fffef9" opacity="0.86"/>
  </g>
  <text x="62" y="88" text-anchor="middle" dominant-baseline="middle" font-family="Arial, sans-serif" font-size="12" font-weight="900" fill="#087443">9</text>
  <rect x="17" y="96" width="46" height="5" rx="3" fill="#8b7355" opacity="0.22"/>
</svg>
