<svg xmlns="http://www.w3.org/2000/svg" viewBox="0 0 80 112" role="img">
  <defs>
    <linearGradient id="tileBase" x1="0" y1="0" x2="0" y2="1">
      <stop offset="0" stop-color="#ffffff"/>
      <stop offset="0.72" stop-color="#fffaf0"/>
      <stop offset="1" stop-color="#dfd2b8"/>
    </linearGradient>
    <filter id="tileShadow" x="-20%" y="-20%" width="140%" height="140%">
      <feDropShadow dx="0" dy="1.8" stdDeviation="1.1" flood-color="#0f172a" flood-opacity="0.20"/>
    </filter>
  </defs>
  <rect x="5" y="4" width="70" height="104" rx="10" fill="url(#tileBase)" stroke="#b7aa8d" stroke-width="3" filter="url(#tileShadow)"/>
  <rect x="11" y="10" width="58" height="88" rx="7" fill="#fffef9" stroke="#087443" stroke-opacity="0.34" stroke-width="2"/>
  <path d="M18 64c8-27 25-40 43-35-10 6-16 14-17 24 8-5 16-3 22 3-12 4-20 11-28 22-5-9-11-14-20-14Z" fill="#087443"/>
  <path d="M23 64c9 0 18 5 26 14" fill="none" stroke="#0f5132" stroke-width="4" stroke-linecap="round"/>
  <circle cx="51" cy="38" r="3.5" fill="#fffef9"/>
  <path d="M59 38l8-4-5 9z" fill="#f59e0b"/>
  <path d="M18 73c8-4 16-1 22 6" fill="none" stroke="#b42318" stroke-width="3.4" stroke-linecap="round"/>
  <text x="62" y="88" text-anchor="middle" dominant-baseline="middle" font-family="Arial, sans-serif" font-size="12" font-weight="900" fill="#087443">1</text>
  <rect x="17" y="96" width="46" height="5" rx="3" fill="#8b7355" opacity="0.22"/>
</svg>
