<svg xmlns="http://www.w3.org/2000/svg" viewBox="0 0 80 112" role="img">
  <defs>
    <linearGradient id="tileBase" x1="0" y1="0" x2="0" y2="1">
      <stop offset="0" stop-color="#ffffff"/>
      <stop offset="0.72" stop-color="#fffaf0"/>
      <stop offset="1" stop-color="#dfd2b8"/>
    </linearGradient>
    <filter id="tileShadow" x="-20%" y="-20%" width="140%" height="140%">
      <feDropShadow dx="0" dy="1.8" stdDeviation="1.1" flood-color="#0f172a" flood-opacity="0.20"/>
    </filter>
  </defs>
  <rect x="5" y="4" width="70" height="104" rx="10" fill="url(#tileBase)" stroke="#b7aa8d" stroke-width="3" filter="url(#tileShadow)"/>
  <rect x="11" y="10" width="58" height="88" rx="7" fill="#fffef9" stroke="#087443" stroke-opacity="0.34" stroke-width="2"/>
  <path d="M22 66c7-23 22-37 38-31-9 5-14 12-15 21 7-4 14-3 19 2-10 4-17 10-24 20-4-9-10-13-18-12Z" fill="#087443"/>
  <path d="M25 65c8 0 16 4 23 13" fill="none" stroke="#0f5132" stroke-width="3" stroke-linecap="round"/>
  <circle cx="50" cy="39" r="3.2" fill="#fffef9"/>
  <path d="M57 39l8-4-5 8z" fill="#f59e0b"/>
  <path d="M20 72c8-3 14-1 19 5" fill="none" stroke="#b42318" stroke-width="3" stroke-linecap="round"/>
  <text x="62" y="88" text-anchor="middle" dominant-baseline="middle" font-family="Arial, sans-serif" font-size="12" font-weight="900" fill="#087443">1</text>
  <rect x="17" y="96" width="46" height="5" rx="3" fill="#8b7355" opacity="0.22"/>
</svg>
