<svg xmlns="http://www.w3.org/2000/svg" viewBox="0 0 80 112" role="img">
  <defs>
    <linearGradient id="tileBase" x1="0" y1="0" x2="0" y2="1">
      <stop offset="0" stop-color="#ffffff"/>
      <stop offset="0.76" stop-color="#fffdf8"/>
      <stop offset="1" stop-color="#d7c8ad"/>
    </linearGradient>
    <filter id="tileShadow" x="-20%" y="-20%" width="140%" height="140%">
      <feDropShadow dx="0" dy="2" stdDeviation="1.2" flood-color="#0f172a" flood-opacity="0.22"/>
    </filter>
  </defs>
  <rect x="5" y="4" width="70" height="104" rx="10" fill="url(#tileBase)" stroke="#087443" stroke-width="3" filter="url(#tileShadow)"/>
  <rect x="12" y="11" width="56" height="85" rx="7" fill="#fff" stroke="#087443" stroke-opacity="0.42" stroke-width="2"/>
  <rect x="22" y="28" width="6" height="42" rx="3" fill="#087443"/>
  <circle cx="25" cy="36" r="4" fill="#34d399"/>
  <circle cx="25" cy="62" r="4" fill="#34d399"/>
  <rect x="30" y="28" width="6" height="42" rx="3" fill="#087443"/>
  <circle cx="33" cy="36" r="4" fill="#34d399"/>
  <circle cx="33" cy="62" r="4" fill="#34d399"/>
  <rect x="37" y="28" width="6" height="42" rx="3" fill="#087443"/>
  <circle cx="40" cy="36" r="4" fill="#34d399"/>
  <circle cx="40" cy="62" r="4" fill="#34d399"/>
  <rect x="44" y="28" width="6" height="42" rx="3" fill="#087443"/>
  <circle cx="47" cy="36" r="4" fill="#34d399"/>
  <circle cx="47" cy="62" r="4" fill="#34d399"/>
  <rect x="52" y="28" width="6" height="42" rx="3" fill="#087443"/>
  <circle cx="55" cy="36" r="4" fill="#34d399"/>
  <circle cx="55" cy="62" r="4" fill="#34d399"/>
  <text x="62" y="87" text-anchor="middle" dominant-baseline="middle" font-family="Arial, 'Noto Sans JP', sans-serif" font-size="13" font-weight="900" fill="#087443">5</text>
  <rect x="16" y="96" width="48" height="5" rx="3" fill="#8b7355" opacity="0.26"/>
</svg>
