<svg xmlns="http://www.w3.org/2000/svg" viewBox="0 0 80 112" role="img">
  <defs>
    <linearGradient id="tileBase" x1="0" y1="0" x2="0" y2="1">
      <stop offset="0" stop-color="#ffffff"/>
      <stop offset="0.72" stop-color="#fffaf0"/>
      <stop offset="1" stop-color="#dfd2b8"/>
    </linearGradient>
    <filter id="tileShadow" x="-20%" y="-20%" width="140%" height="140%">
      <feDropShadow dx="0" dy="1.8" stdDeviation="1.1" flood-color="#0f172a" flood-opacity="0.20"/>
    </filter>
  </defs>
  <rect x="5" y="4" width="70" height="104" rx="10" fill="url(#tileBase)" stroke="#b7aa8d" stroke-width="3" filter="url(#tileShadow)"/>
  <rect x="11" y="10" width="58" height="88" rx="7" fill="#fffef9" stroke="#087443" stroke-opacity="0.34" stroke-width="2"/>
  <g>
    <rect x="23.22" y="22.24" width="11.56" height="23.52" rx="4.31" fill="#087443"/>
    <rect x="22.34" y="32.33" width="13.33" height="3.33" rx="1.67" fill="#fffef9" opacity="0.94"/>
    <circle cx="29" cy="27.65" r="2.16" fill="#fffef9" opacity="0.9"/>
    <circle cx="29" cy="40.35" r="2.16" fill="#fffef9" opacity="0.9"/>
  </g>
  <g>
    <rect x="45.22" y="22.24" width="11.56" height="23.52" rx="4.31" fill="#087443"/>
    <rect x="44.34" y="32.33" width="13.33" height="3.33" rx="1.67" fill="#fffef9" opacity="0.94"/>
    <circle cx="51" cy="27.65" r="2.16" fill="#fffef9" opacity="0.9"/>
    <circle cx="51" cy="40.35" r="2.16" fill="#fffef9" opacity="0.9"/>
  </g>
  <g>
    <rect x="34.22" y="40.24" width="11.56" height="23.52" rx="4.31" fill="#b42318"/>
    <rect x="33.34" y="50.33" width="13.33" height="3.33" rx="1.67" fill="#fffef9" opacity="0.94"/>
    <circle cx="40" cy="45.65" r="2.16" fill="#fffef9" opacity="0.9"/>
    <circle cx="40" cy="58.35" r="2.16" fill="#fffef9" opacity="0.9"/>
  </g>
  <g>
    <rect x="23.22" y="58.24" width="11.56" height="23.52" rx="4.31" fill="#087443"/>
    <rect x="22.34" y="68.33" width="13.33" height="3.33" rx="1.67" fill="#fffef9" opacity="0.94"/>
    <circle cx="29" cy="63.65" r="2.16" fill="#fffef9" opacity="0.9"/>
    <circle cx="29" cy="76.35" r="2.16" fill="#fffef9" opacity="0.9"/>
  </g>
  <g>
    <rect x="45.22" y="58.24" width="11.56" height="23.52" rx="4.31" fill="#087443"/>
    <rect x="44.34" y="68.33" width="13.33" height="3.33" rx="1.67" fill="#fffef9" opacity="0.94"/>
    <circle cx="51" cy="63.65" r="2.16" fill="#fffef9" opacity="0.9"/>
    <circle cx="51" cy="76.35" r="2.16" fill="#fffef9" opacity="0.9"/>
  </g>
  <text x="62" y="88" text-anchor="middle" dominant-baseline="middle" font-family="Arial, sans-serif" font-size="12" font-weight="900" fill="#087443">5</text>
  <rect x="17" y="96" width="46" height="5" rx="3" fill="#8b7355" opacity="0.22"/>
</svg>
