<svg xmlns="http://www.w3.org/2000/svg" viewBox="0 0 80 112" role="img">
  <defs>
    <linearGradient id="tileBase" x1="0" y1="0" x2="0" y2="1">
      <stop offset="0" stop-color="#ffffff"/>
      <stop offset="0.72" stop-color="#fffaf0"/>
      <stop offset="1" stop-color="#dfd2b8"/>
    </linearGradient>
    <filter id="tileShadow" x="-20%" y="-20%" width="140%" height="140%">
      <feDropShadow dx="0" dy="1.8" stdDeviation="1.1" flood-color="#0f172a" flood-opacity="0.20"/>
    </filter>
  </defs>
  <rect x="5" y="4" width="70" height="104" rx="10" fill="url(#tileBase)" stroke="#b7aa8d" stroke-width="3" filter="url(#tileShadow)"/>
  <rect x="11" y="10" width="58" height="88" rx="7" fill="#fffef9" stroke="#087443" stroke-opacity="0.34" stroke-width="2"/>
  <g>
    <rect x="21.16" y="21.16" width="9.68" height="19.68" rx="3.61" fill="#087443"/>
    <rect x="20.42" y="29.61" width="11.15" height="2.79" rx="1.39" fill="#fffef9" opacity="0.94"/>
    <circle cx="26" cy="25.69" r="1.8" fill="#fffef9" opacity="0.9"/>
    <circle cx="26" cy="36.31" r="1.8" fill="#fffef9" opacity="0.9"/>
  </g>
  <g>
    <rect x="35.16" y="21.16" width="9.68" height="19.68" rx="3.61" fill="#087443"/>
    <rect x="34.42" y="29.61" width="11.15" height="2.79" rx="1.39" fill="#fffef9" opacity="0.94"/>
    <circle cx="40" cy="25.69" r="1.8" fill="#fffef9" opacity="0.9"/>
    <circle cx="40" cy="36.31" r="1.8" fill="#fffef9" opacity="0.9"/>
  </g>
  <g>
    <rect x="49.16" y="21.16" width="9.68" height="19.68" rx="3.61" fill="#087443"/>
    <rect x="48.42" y="29.61" width="11.15" height="2.79" rx="1.39" fill="#fffef9" opacity="0.94"/>
    <circle cx="54" cy="25.69" r="1.8" fill="#fffef9" opacity="0.9"/>
    <circle cx="54" cy="36.31" r="1.8" fill="#fffef9" opacity="0.9"/>
  </g>
  <g>
    <rect x="25.93" y="41.68" width="10.15" height="20.64" rx="3.78" fill="#b42318"/>
    <rect x="25.15" y="50.54" width="11.7" height="2.92" rx="1.46" fill="#fffef9" opacity="0.94"/>
    <circle cx="31" cy="46.43" r="1.89" fill="#fffef9" opacity="0.9"/>
    <circle cx="31" cy="57.57" r="1.89" fill="#fffef9" opacity="0.9"/>
  </g>
  <g>
    <rect x="43.93" y="41.68" width="10.15" height="20.64" rx="3.78" fill="#087443"/>
    <rect x="43.15" y="50.54" width="11.7" height="2.92" rx="1.46" fill="#fffef9" opacity="0.94"/>
    <circle cx="49" cy="46.43" r="1.89" fill="#fffef9" opacity="0.9"/>
    <circle cx="49" cy="57.57" r="1.89" fill="#fffef9" opacity="0.9"/>
  </g>
  <g>
    <rect x="25.93" y="62.68" width="10.15" height="20.64" rx="3.78" fill="#087443"/>
    <rect x="25.15" y="71.54" width="11.7" height="2.92" rx="1.46" fill="#fffef9" opacity="0.94"/>
    <circle cx="31" cy="67.43" r="1.89" fill="#fffef9" opacity="0.9"/>
    <circle cx="31" cy="78.57" r="1.89" fill="#fffef9" opacity="0.9"/>
  </g>
  <g>
    <rect x="43.93" y="62.68" width="10.15" height="20.64" rx="3.78" fill="#087443"/>
    <rect x="43.15" y="71.54" width="11.7" height="2.92" rx="1.46" fill="#fffef9" opacity="0.94"/>
    <circle cx="49" cy="67.43" r="1.89" fill="#fffef9" opacity="0.9"/>
    <circle cx="49" cy="78.57" r="1.89" fill="#fffef9" opacity="0.9"/>
  </g>
  <text x="62" y="88" text-anchor="middle" dominant-baseline="middle" font-family="Arial, sans-serif" font-size="12" font-weight="900" fill="#087443">7</text>
  <rect x="17" y="96" width="46" height="5" rx="3" fill="#8b7355" opacity="0.22"/>
</svg>
