<svg xmlns="http://www.w3.org/2000/svg" viewBox="0 0 80 112" role="img">
  <defs>
    <linearGradient id="tileBase" x1="0" y1="0" x2="0" y2="1">
      <stop offset="0" stop-color="#ffffff"/>
      <stop offset="0.72" stop-color="#fffaf0"/>
      <stop offset="1" stop-color="#dfd2b8"/>
    </linearGradient>
    <filter id="tileShadow" x="-20%" y="-20%" width="140%" height="140%">
      <feDropShadow dx="0" dy="1.8" stdDeviation="1.1" flood-color="#0f172a" flood-opacity="0.20"/>
    </filter>
  </defs>
  <rect x="5" y="4" width="70" height="104" rx="10" fill="url(#tileBase)" stroke="#b7aa8d" stroke-width="3" filter="url(#tileShadow)"/>
  <rect x="11" y="10" width="58" height="88" rx="7" fill="#fffef9" stroke="#087443" stroke-opacity="0.34" stroke-width="2"/>
  <g>
    <rect x="24.69" y="20.2" width="10.62" height="21.6" rx="3.96" fill="#087443"/>
    <rect x="23.88" y="29.47" width="12.24" height="3.06" rx="1.53" fill="#fffef9" opacity="0.94"/>
    <circle cx="30" cy="25.17" r="1.98" fill="#fffef9" opacity="0.9"/>
    <circle cx="30" cy="36.83" r="1.98" fill="#fffef9" opacity="0.9"/>
  </g>
  <g>
    <rect x="44.69" y="20.2" width="10.62" height="21.6" rx="3.96" fill="#087443"/>
    <rect x="43.88" y="29.47" width="12.24" height="3.06" rx="1.53" fill="#fffef9" opacity="0.94"/>
    <circle cx="50" cy="25.17" r="1.98" fill="#fffef9" opacity="0.9"/>
    <circle cx="50" cy="36.83" r="1.98" fill="#fffef9" opacity="0.9"/>
  </g>
  <g>
    <rect x="24.69" y="41.2" width="10.62" height="21.6" rx="3.96" fill="#087443"/>
    <rect x="23.88" y="50.47" width="12.24" height="3.06" rx="1.53" fill="#fffef9" opacity="0.94"/>
    <circle cx="30" cy="46.17" r="1.98" fill="#fffef9" opacity="0.9"/>
    <circle cx="30" cy="57.83" r="1.98" fill="#fffef9" opacity="0.9"/>
  </g>
  <g>
    <rect x="44.69" y="41.2" width="10.62" height="21.6" rx="3.96" fill="#087443"/>
    <rect x="43.88" y="50.47" width="12.24" height="3.06" rx="1.53" fill="#fffef9" opacity="0.94"/>
    <circle cx="50" cy="46.17" r="1.98" fill="#fffef9" opacity="0.9"/>
    <circle cx="50" cy="57.83" r="1.98" fill="#fffef9" opacity="0.9"/>
  </g>
  <g>
    <rect x="24.69" y="62.2" width="10.62" height="21.6" rx="3.96" fill="#087443"/>
    <rect x="23.88" y="71.47" width="12.24" height="3.06" rx="1.53" fill="#fffef9" opacity="0.94"/>
    <circle cx="30" cy="67.17" r="1.98" fill="#fffef9" opacity="0.9"/>
    <circle cx="30" cy="78.83" r="1.98" fill="#fffef9" opacity="0.9"/>
  </g>
  <g>
    <rect x="44.69" y="62.2" width="10.62" height="21.6" rx="3.96" fill="#087443"/>
    <rect x="43.88" y="71.47" width="12.24" height="3.06" rx="1.53" fill="#fffef9" opacity="0.94"/>
    <circle cx="50" cy="67.17" r="1.98" fill="#fffef9" opacity="0.9"/>
    <circle cx="50" cy="78.83" r="1.98" fill="#fffef9" opacity="0.9"/>
  </g>
  <text x="62" y="88" text-anchor="middle" dominant-baseline="middle" font-family="Arial, sans-serif" font-size="12" font-weight="900" fill="#087443">6</text>
  <rect x="17" y="96" width="46" height="5" rx="3" fill="#8b7355" opacity="0.22"/>
</svg>
